<!DOCTYPE svg PUBLIC "-//W3C//DTD SVG 1.1//EN" "http://www.w3.org/Graphics/SVG/1.1/DTD/svg11.dtd">
<!-- Uploaded to: SVG Repo, www.svgrepo.com, Transformed by: SVG Repo Mixer Tools -->
<svg width="100px" height="100px" viewBox="-40 -40 480.00 480.00" fill="none" xmlns="http://www.w3.org/2000/svg">
<g id="SVGRepo_bgCarrier" stroke-width="0">
<path transform="translate(-40, -40), scale(15)" d="M16,30.897200347855687C19.58058006905259,31.151494901164288,23.195674982024315,30.157226273431117,26.01548863183922,27.93599455858086C28.903401309142126,25.661119682021408,31.057355591781313,22.379698818795475,31.452728156683428,18.724732899576672C31.83213814160338,15.21733079989616,30.00611424529907,11.979668836375968,28.059843289324093,9.037246230524037C26.237541992600413,6.282244151449709,24.09629165003104,3.272013862731595,20.84518216507218,2.6879714083199264C17.760917910167233,2.1339017057083405,15.320469592269582,4.9870843425042874,12.444772129429001,6.232091704590438C9.839853595005813,7.3598677641026224,6.4319044134351895,7.201702216860189,4.8998838521112145,9.591344953980292C3.3490333936741172,12.010358528550645,4.560626907715895,15.102264444999177,4.931213759960482,17.951725657813565C5.3262654933968925,20.989298590215366,5.120447370870142,24.265247052655262,7.111086463662392,26.59339464118964C9.316961362927774,29.173270795500237,12.614173283742176,30.656737273217917,16,30.897200347855687" fill="#7ed0ec" strokewidth="0"/>
</g>
<g id="SVGRepo_tracerCarrier" stroke-linecap="round" stroke-linejoin="round"/>
<g id="SVGRepo_iconCarrier"> <path d="M162.199 335.116C151.492 326.489 146.923 312.546 145.728 299.371C145.056 291.968 142.878 283.292 144.729 275.875C154.067 238.469 215.547 216.115 242.81 248.881C287.489 302.579 238.232 371.43 173.429 343.614" stroke="#000000" stroke-opacity="0.9" stroke-width="10" stroke-linecap="round" stroke-linejoin="round"/> <path d="M169.051 343C169.307 349.001 157.233 359.867 159.221 365.911C159.394 366.438 169.613 368.316 170.771 368.651C192.486 374.938 223.77 371.959 244 363.172" stroke="#000000" stroke-opacity="0.9" stroke-width="10" stroke-linecap="round" stroke-linejoin="round"/> <path d="M240 344C243.238 348.887 245.008 354.426 247 360" stroke="#000000" stroke-opacity="0.9" stroke-width="10" stroke-linecap="round" stroke-linejoin="round"/> <path d="M134.491 252.783C135.592 246.268 152.155 202.413 138.857 199.118C128.926 196.658 115.497 233.363 115.276 233.308C112.346 232.582 83.4849 188.604 73.7913 203.013C68.7859 210.454 83.0084 227.44 86.8915 232.443C89.7221 236.089 99.9243 245.381 96.0619 242.829C91.7054 239.95 51.9397 220.842 50.2099 229.413C48.3461 238.648 74.3137 251.928 81.2151 252.783C81.284 252.792 84.7083 252.795 84.7083 253.649C84.7083 253.712 57.7203 255.337 45.4068 261.439C33.0282 267.572 71.7421 271.825 85.5816 271.825C90.8696 271.825 66.7222 284.067 75.9745 289.569C87.5388 296.446 95.9248 276.403 103.922 274.422C106.941 273.674 112.37 274.855 115.713 274.855" stroke="#000000" stroke-opacity="0.9" stroke-width="10" stroke-linecap="round" stroke-linejoin="round"/> <path d="M264.942 247C247.413 222.936 258.096 175.838 276 230.051" stroke="#000000" stroke-opacity="0.9" stroke-width="10" stroke-linecap="round" stroke-linejoin="round"/> <path d="M278.696 224.539C283.355 221.168 322.527 204.278 324.362 206.143C328.193 210.037 310.7 227.776 308.729 229.556C305.816 232.187 296.921 239.882 299.678 237.081C305.907 230.751 334.223 219.509 342.464 227.884C346.606 232.093 320.232 244.833 318.191 245.443C315.064 246.377 305.469 247.951 308.729 247.951C316.99 247.951 349.128 241.677 351.927 255.894C353.977 266.313 312.356 263.382 315.722 265.092C317.576 266.034 337.719 273.259 332.59 278.471C323.576 287.631 299.852 269.108 292.273 267.182C286.467 265.707 278.585 270.414 272.937 264.674C271.11 262.818 269.225 258.802 268 256.313" stroke="#000000" stroke-opacity="0.9" stroke-width="10" stroke-linecap="round" stroke-linejoin="round"/> <path d="M175 133C179 135.5 184 136 188 133.969" stroke="#000000" stroke-opacity="0.9" stroke-width="10" stroke-linecap="round" stroke-linejoin="round"/> <path d="M205 133.453C208.5 135 213 134.5 216.5 132.5" stroke="#000000" stroke-opacity="0.9" stroke-width="10" stroke-linecap="round" stroke-linejoin="round"/> <path d="M191 171C194.736 173.701 199.959 173.51 204 171.363" stroke="#000000" stroke-opacity="0.9" stroke-width="10" stroke-linecap="round" stroke-linejoin="round"/> <path d="M147.896 146.043C128.107 144.564 139.06 182.254 150.986 165.86C153.705 162.123 154.787 158.506 153.388 154.182" stroke="#000000" stroke-opacity="0.9" stroke-width="10" stroke-linecap="round" stroke-linejoin="round"/> <path d="M253.6 144C274.439 150.317 254.987 182.167 249 158.178" stroke="#000000" stroke-opacity="0.9" stroke-width="10" stroke-linecap="round" stroke-linejoin="round"/> <path d="M145 133.29C134.381 128.204 117.629 139.045 116.603 150.323C115.667 160.623 122.889 170.402 117.313 181.548C114.963 186.249 108.378 185.514 104.89 189C97.0643 196.823 92.5747 215.675 96.3712 222" stroke="#000000" stroke-opacity="0.5" stroke-width="10" stroke-linecap="round" stroke-linejoin="round"/> <path d="M161 175C138.192 183.174 155.452 195.584 152.628 208.05C151.737 211.982 147.272 214.113 146 218" stroke="#000000" stroke-opacity="0.5" stroke-width="10" stroke-linecap="round" stroke-linejoin="round"/> <path d="M247 130.589C250.942 128.159 255.24 127.639 259.825 128.213C263.202 128.635 265.731 131.114 268.375 132.965C291.469 149.138 273.294 150.955 280.25 167.656C288.385 187.188 304 184.375 304 209" stroke="#000000" stroke-opacity="0.5" stroke-width="10" stroke-linecap="round" stroke-linejoin="round"/> <path d="M237 179C237.531 194.755 257.752 187.888 263.641 199.451C266.486 205.039 265.257 215.306 268 218" stroke="#000000" stroke-opacity="0.5" stroke-width="10" stroke-linecap="round" stroke-linejoin="round"/> <path d="M184.983 77.9627C183.254 74.0857 182.424 70.0252 182.098 65.8624C181.674 60.4539 182.492 55.4084 187.29 51.6581C205.634 37.3222 215.748 85.8964 192.484 80.5934" stroke="#000000" stroke-opacity="0.9" stroke-width="10" stroke-linecap="round" stroke-linejoin="round"/> <path d="M189 86C177.809 96.7347 163.223 101.698 149 107" stroke="#000000" stroke-opacity="0.9" stroke-width="10" stroke-linecap="round" stroke-linejoin="round"/> <path d="M199 88C206.113 107.56 234.423 108.8 246 123" stroke="#000000" stroke-opacity="0.9" stroke-width="10" stroke-linecap="round" stroke-linejoin="round"/> <path d="M175 54C162.835 58.5558 132.636 63.9269 123.686 72.3332C112.438 82.8954 139.723 131.308 146.554 142" stroke="#000000" stroke-opacity="0.9" stroke-width="10" stroke-linecap="round" stroke-linejoin="round"/> <path d="M217 51C224.349 51.641 253.157 60.8385 256.896 67.8422C262.556 78.443 255.795 121.849 248.468 131" stroke="#000000" stroke-opacity="0.9" stroke-width="10" stroke-linecap="round" stroke-linejoin="round"/> <path d="M174 41.2945C182.379 33.7904 197.014 21.8578 209.46 31.7664C213.711 35.1512 211.845 41.985 215 45" stroke="#000000" stroke-opacity="0.9" stroke-width="10" stroke-linecap="round" stroke-linejoin="round"/> </g>
</svg>